<svg width="96" height="96" viewBox="0 0 96 96" fill="none" xmlns="http://www.w3.org/2000/svg">
<rect width="96" height="96" fill="white"/>
<rect x="9.51465" y="16.0881" width="64.8529" height="56.6177" rx="5" fill="white" stroke="#158C3C" stroke-width="3"/>
<path d="M10.75 20.375C10.75 18.7181 12.0931 17.375 13.75 17.375H70.7499C72.4068 17.375 73.7499 18.7181 73.7499 20.375V30.5H10.75V20.375Z" fill="#C2E6C9"/>
<path d="M11 23C11 21.3431 12.3431 20 14 20H67C68.6569 20 70 21.3431 70 23V30H11V23Z" fill="#9BD5A7"/>
<path d="M31.1323 42.7107H44.5147V51.0048C44.5147 52.1094 43.6192 53.0048 42.5147 53.0048H31.1323V42.7107Z" fill="#FCC0D0"/>
<path d="M53.7793 42.853H67.1616V51.1471C67.1616 52.2517 66.2662 53.1471 65.1617 53.1471H53.7793V42.853Z" fill="#8ECBFD"/>
<path d="M31.2725 56.9216H44.6548V65.2158C44.6548 66.3203 43.7594 67.2157 42.6548 67.2157H31.2725V56.9216Z" fill="#FFD9B2"/>
<path d="M52.7495 13V20.2059" stroke="#158C3C" stroke-width="3" stroke-linecap="round" stroke-linejoin="round"/>
<path d="M31.1323 13V20.2059" stroke="#158C3C" stroke-width="3" stroke-linecap="round" stroke-linejoin="round"/>
<path d="M10.5439 42.853L73.3381 42.853" stroke="#158C3C" stroke-width="3" stroke-linecap="round" stroke-linejoin="round"/>
<path d="M10.5439 57.2649L73.3381 57.2649" stroke="#158C3C" stroke-width="3" stroke-linecap="round" stroke-linejoin="round"/>
<path d="M31.1323 29.1274V71.3333" stroke="#158C3C" stroke-width="3"/>
<path d="M52.7495 29.1274V71.3333" stroke="#158C3C" stroke-width="3"/>
<path d="M10.75 30.5H23.875V38.125C23.875 39.2296 22.9795 40.125 21.875 40.125H10.75V30.5Z" fill="#D2C3E3"/>
<path d="M9.875 29.625L73.7499 29.625" stroke="#158C3C" stroke-width="3" stroke-linecap="round" stroke-linejoin="round"/>
<rect x="9.51465" y="16.0881" width="64.8529" height="56.6177" rx="5" stroke="#158C3C" stroke-width="3"/>
<path d="M54 24H64" stroke="#E6F5E9" stroke-width="3" stroke-linecap="round"/>
<path d="M40.9067 82.2306L41.0524 82.2968C42.6892 83.041 43.9842 84.3762 44.678 86.0349C44.9832 86.7645 46.0168 86.7645 46.322 86.0349C47.0158 84.3762 48.3108 83.041 49.9476 82.2968L50.0933 82.2306C50.8327 81.8944 50.8284 80.8425 50.0862 80.5124L49.8866 80.4236C48.2874 79.7123 47.0106 78.4307 46.3052 76.8288C45.9969 76.1284 45.0031 76.1284 44.6948 76.8288C43.9894 78.4307 42.7126 79.7123 41.1134 80.4236L40.9138 80.5124C40.1716 80.8425 40.1673 81.8944 40.9067 82.2306Z" fill="#FCC0D0"/>
<path d="M79.4667 48.562L79.5788 48.613C80.8378 49.1854 81.834 50.2125 82.3677 51.4884C82.6024 52.0496 83.3975 52.0496 83.6323 51.4884C84.166 50.2125 85.1622 49.1854 86.4212 48.613L86.5333 48.562C87.1021 48.3034 87.0988 47.4942 86.5278 47.2403L86.3743 47.172C85.1442 46.6248 84.162 45.639 83.6194 44.4068C83.3822 43.868 82.6178 43.868 82.3806 44.4068C81.838 45.639 80.8558 46.6248 79.6257 47.172L79.4722 47.2403C78.9012 47.4942 78.8979 48.3034 79.4667 48.562Z" fill="#D2C3E3"/>
<circle cx="71.5" cy="71.5" r="16.5" fill="#FFE991"/>
<circle cx="73.7918" cy="73.7916" r="11.4583" fill="#FFF4BA"/>
<circle cx="71.5" cy="71.5" r="15" stroke="#FFCC40" stroke-width="3"/>
<path d="M68.4697 56.6466C69.0025 60.1991 68.2324 63.9426 66.0194 67.1045C63.8064 70.2663 60.5529 72.2717 57.0327 72.9875" stroke="#FFCC40" stroke-width="3"/>
<path d="M75.3637 84.8746C74.8441 81.4101 75.5952 77.7593 77.7534 74.6757C79.9116 71.5921 83.0845 69.6364 86.5176 68.9382" stroke="#FFCC40" stroke-width="3"/>
<path d="M59.834 63.7742L83.166 79.2256" stroke="#FFCC40" stroke-width="3" stroke-linecap="round"/>
<path d="M63.0903 83.5159L79.9102 59.4839" stroke="#FFCC40" stroke-width="3" stroke-linecap="round"/>
</svg>
