<svg width="53" height="52" viewBox="0 0 53 52" fill="none" xmlns="http://www.w3.org/2000/svg">
<g filter="url(#filter0_i_1569_1400)">
<path d="M0.5 26C0.5 22.2844 0.5 20.4265 0.723928 18.8691C2.11336 9.20538 9.70538 1.61336 19.3691 0.223928C20.9265 0 22.7844 0 26.5 0C30.2156 0 32.0735 0 33.6309 0.223928C43.2946 1.61336 50.8866 9.20538 52.2761 18.8691C52.5 20.4265 52.5 22.2844 52.5 26C52.5 29.7156 52.5 31.5735 52.2761 33.1309C50.8866 42.7946 43.2946 50.3866 33.6309 51.7761C32.0735 52 30.2156 52 26.5 52C22.7844 52 20.9265 52 19.3691 51.7761C9.70538 50.3866 2.11336 42.7946 0.723928 33.1309C0.5 31.5735 0.5 29.7156 0.5 26Z" fill="#E4E9EE"/>
<path fill-rule="evenodd" clip-rule="evenodd" d="M20.5211 15.3323C18.5896 15.3323 17.0239 16.898 17.0239 18.8294V32.6504C17.0239 34.5818 18.5897 36.1475 20.5211 36.1475H31.9587C33.8901 36.1475 35.4558 34.5818 35.4558 32.6504V18.8294C35.4558 16.898 33.8901 15.3323 31.9587 15.3323H20.5211ZM18.7725 18.8294C18.7725 17.8637 19.5554 17.0808 20.5211 17.0808H31.9587C32.9244 17.0808 33.7073 17.8637 33.7073 18.8294V32.6504C33.7073 33.6161 32.9244 34.3989 31.9587 34.3989H20.5211C19.5554 34.3989 18.7725 33.6161 18.7725 32.6504V18.8294ZM22.3475 19.7816C21.8647 19.7816 21.4732 20.173 21.4732 20.6558V21.2906C21.4732 21.7735 21.8647 22.1649 22.3475 22.1649H30.1323C30.6151 22.1649 31.0066 21.7735 31.0066 21.2906V20.6558C31.0066 20.173 30.6151 19.7816 30.1323 19.7816H22.3475ZM21.4732 25.4225C21.4732 24.9397 21.8647 24.5482 22.3475 24.5482H30.1323C30.6151 24.5482 31.0066 24.9397 31.0066 25.4225V26.0573C31.0066 26.5401 30.6151 26.9316 30.1323 26.9316H22.3475C21.8647 26.9316 21.4732 26.5401 21.4732 26.0573V25.4225ZM22.3475 29.3149C21.8647 29.3149 21.4732 29.7063 21.4732 30.1892V30.8239C21.4732 31.3068 21.8647 31.6982 22.3475 31.6982H30.1323C30.6151 31.6982 31.0066 31.3068 31.0066 30.8239V30.1892C31.0066 29.7063 30.6151 29.3149 30.1323 29.3149H22.3475Z" fill="#0B4A73"/>
<g opacity="0.08" filter="url(#filter1_f_1569_1400)">
<ellipse cx="26.0833" cy="35.6667" rx="9.33333" ry="5.33333" fill="#002744"/>
</g>
</g>
<defs>
<filter id="filter0_i_1569_1400" x="0.5" y="0" width="52" height="56" filterUnits="userSpaceOnUse" color-interpolation-filters="sRGB">
<feFlood flood-opacity="0" result="BackgroundImageFix"/>
<feBlend mode="normal" in="SourceGraphic" in2="BackgroundImageFix" result="shape"/>
<feColorMatrix in="SourceAlpha" type="matrix" values="0 0 0 0 0 0 0 0 0 0 0 0 0 0 0 0 0 0 127 0" result="hardAlpha"/>
<feMorphology radius="2" operator="erode" in="SourceAlpha" result="effect1_innerShadow_1569_1400"/>
<feOffset dy="4"/>
<feGaussianBlur stdDeviation="5.5"/>
<feComposite in2="hardAlpha" operator="arithmetic" k2="-1" k3="1"/>
<feColorMatrix type="matrix" values="0 0 0 0 0.733333 0 0 0 0 0.784314 0 0 0 0 0.839216 0 0 0 0.6 0"/>
<feBlend mode="normal" in2="shape" result="effect1_innerShadow_1569_1400"/>
</filter>
<filter id="filter1_f_1569_1400" x="11.8269" y="25.4103" width="28.5129" height="20.5128" filterUnits="userSpaceOnUse" color-interpolation-filters="sRGB">
<feFlood flood-opacity="0" result="BackgroundImageFix"/>
<feBlend mode="normal" in="SourceGraphic" in2="BackgroundImageFix" result="shape"/>
<feGaussianBlur stdDeviation="2.46154" result="effect1_foregroundBlur_1569_1400"/>
</filter>
</defs>
</svg>
