<svg width="96" height="96" viewBox="0 0 96 96" fill="none" xmlns="http://www.w3.org/2000/svg">
<rect width="96" height="96" fill="white"/>
<path d="M62.1417 11.9181C66.6767 10.5223 71.268 9.98007 74.1681 9.90736C75.3793 9.87699 76.4126 10.7458 76.6519 11.9179C77.3865 14.7956 78.1416 19.3904 78.1038 24.1638C78.066 28.932 77.2357 34.3345 74.3462 38.2773C70.8285 43.0773 66.6607 44.6118 62.6048 45.0082C60.7383 45.1905 58.8811 45.1338 57.2327 45.0835L57.0363 45.0775C55.2752 45.0241 51.6069 44.9075 50.224 45.0835C48.8759 45.255 50.4359 45.1771 49.6304 42.982C49.6292 42.9719 49.3665 40.9823 49.3653 40.9723C49.1372 39.5971 48.9545 40.1408 48.4243 38.4692L48.3637 38.2781C47.8543 36.6735 47.2804 34.8656 46.9283 32.9815C46.1631 28.8876 46.4346 24.3647 49.9523 19.5646C52.8418 15.6218 57.6782 13.2919 62.1417 11.9181Z" fill="#FFD9B2" stroke="#FF8000" stroke-width="3" stroke-linecap="round"/>
<path d="M60.0479 12.1213C64.0491 10.887 68.1003 10.4088 70.6593 10.3457C71.7281 10.3193 72.6402 11.0892 72.8519 12.1275C73.5014 14.6764 74.1697 18.7461 74.1384 22.9737C74.1072 27.1967 73.3769 31.9811 70.8288 35.4718C67.7268 39.7214 64.0498 41.0787 60.471 41.4279C58.8241 41.5886 57.1852 41.5376 55.7306 41.4923L55.5573 41.4869C54.0033 41.4389 50.9765 41.6434 49.7563 41.7986C48.5668 41.95 49.177 40.8481 49.0214 39.6277C49.0203 39.6188 48.8566 38.3792 48.8556 38.3704C48.6536 37.1523 48.4237 37.1112 47.9551 35.6304L47.9016 35.4612C47.4514 34.0398 46.9442 32.4384 46.6327 30.7696C45.9557 27.1435 46.1933 23.1378 49.2952 18.8882C51.8433 15.3974 56.11 13.3361 60.0479 12.1213Z" fill="#FFBF80"/>
<path d="M62.1417 11.9181C66.6767 10.5223 71.268 9.98007 74.1681 9.90736C75.3793 9.87699 76.4126 10.7458 76.6519 11.9179C77.3865 14.7956 78.1416 19.3904 78.1038 24.1638C78.066 28.932 77.2357 34.3345 74.3462 38.2773C70.8285 43.0773 66.6607 44.6118 62.6048 45.0082C60.7383 45.1905 58.8811 45.1338 57.2327 45.0835L57.0363 45.0775C55.2752 45.0241 51.845 45.2568 50.4621 45.4327C49.114 45.6043 49.806 44.3598 49.6304 42.982C49.6292 42.9719 49.4443 41.5724 49.4432 41.5623C49.215 40.1871 48.9545 40.1408 48.4243 38.4692L48.3637 38.2781C47.8543 36.6735 47.2804 34.8656 46.9283 32.9815C46.1631 28.8876 46.4346 24.3647 49.9523 19.5646C52.8418 15.6218 57.6782 13.2919 62.1417 11.9181Z" stroke="#FF8000" stroke-width="3" stroke-linecap="round"/>
<path d="M11.5252 51.2752C10.9758 50.1774 11.3125 48.8159 12.3571 48.1101C14.2256 46.8478 17.3572 45.1226 20.8357 43.9449C24.2426 42.7914 28.4082 42.0164 32.1035 43.1837C36.5711 44.5948 38.8268 47.3508 40.1922 50.2849C40.8112 51.6151 41.2534 52.9942 41.6344 54.1824L41.683 54.3343C42.0678 55.5333 42.3939 56.5213 42.8025 57.3802C42.8242 57.4161 42.8452 57.4527 42.8653 57.49C43.5164 58.6965 43.0661 60.2023 41.8596 60.8533C40.9734 61.3315 40.0928 61.9864 39.0181 62.8005L38.891 62.8968C37.8966 63.6507 36.7425 64.5255 35.4718 65.2588C32.6687 66.8762 29.2391 67.8364 24.7716 66.4252C21.0763 65.258 18.1117 62.2308 15.9854 59.3296C13.8906 56.4712 12.3531 53.3811 11.5252 51.2752Z" fill="#FFD9B2" stroke="#FF8000" stroke-width="3" stroke-linecap="round"/>
<path d="M12.8192 53.9855C12.3416 53.0307 12.6294 51.849 13.531 51.2385C15.1438 50.1466 17.8476 48.6557 20.8527 47.6412C23.796 46.6475 27.3962 45.9843 30.5944 47.0069C34.461 48.2432 36.4181 50.6421 37.6058 53.1937C38.1442 54.3505 38.5299 55.5493 38.8621 56.5822L40.8081 57.4002C41.1437 58.4425 41.3818 57.9187 41.7372 58.6657C43.6232 58.0583 42.3444 58.9536 42.3619 58.986C42.9277 60.0354 40.1145 61.8139 39.0728 62.3765C38.3077 62.7897 37.5477 63.3564 36.6204 64.0609L36.5107 64.1443C35.6526 64.7966 34.6568 65.5537 33.5597 66.1875C31.1396 67.5856 28.1763 68.4113 24.3098 67.1751C21.1116 66.1525 18.5408 63.5163 16.6953 60.9914C14.8771 58.5039 13.5402 55.8164 12.8192 53.9855Z" fill="#FFBF80"/>
<path d="M11.5252 51.2752C10.9758 50.1774 11.3125 48.8159 12.3571 48.1101C14.2256 46.8478 17.3572 45.1226 20.8357 43.9449C24.2426 42.7914 28.4082 42.0164 32.1035 43.1837C36.5711 44.5948 38.8268 47.3508 40.1922 50.2849C40.8112 51.6151 41.2534 52.9942 41.6344 54.1824L41.683 54.3342C42.0678 55.5333 42.3939 56.5213 42.8025 57.3802C42.8242 57.4161 42.8452 57.4527 42.8653 57.49C43.5164 58.6965 43.0661 60.2022 41.8596 60.8533C40.9734 61.3315 40.0928 61.9864 39.0181 62.8005L38.891 62.8968C37.8966 63.6507 36.7425 64.5255 35.4718 65.2588C32.6687 66.8762 29.2391 67.8364 24.7716 66.4252C21.0763 65.258 18.1117 62.2308 15.9854 59.3296C13.8906 56.4712 12.3531 53.3811 11.5252 51.2752Z" stroke="#FF8000" stroke-width="3" stroke-linecap="round"/>
<path d="M42.397 86.9074C42.0272 52.9371 48.3089 47.7391 52.8609 40.9281C56.6097 35.5386 64.5861 24.2807 66.5011 22.3657" stroke="#FF8000" stroke-width="3" stroke-linecap="round"/>
<path d="M43.4434 59.3833C40.3467 57.4319 31.8556 53.3971 22.6647 52.8689" stroke="#FF8000" stroke-width="3" stroke-linecap="round"/>
<path d="M36.7176 22.6872C36.1848 22.5181 35.6252 22.456 35.0706 22.5045C34.516 22.5529 33.9774 22.711 33.4855 22.9696C32.9936 23.2283 32.5581 23.5824 32.2038 24.0118C31.8496 24.4412 31.5835 24.9375 31.4208 25.4723L31.083 26.5818L29.9775 26.2312C28.9015 25.8899 27.7389 25.9916 26.7456 26.5139C25.7522 27.0362 25.0095 27.9363 24.6807 29.0162C24.3519 30.0961 24.4641 31.2673 24.9924 32.2722C25.5208 33.2771 26.4221 34.0334 27.4982 34.3746L28.6037 34.7252L36.7179 37.2986L39.1973 29.1551L39.5351 28.0456C39.698 27.5109 39.7544 26.9481 39.7009 26.3894C39.6475 25.8307 39.4853 25.287 39.2237 24.7894C38.9621 24.2918 38.6061 23.85 38.1761 23.4893C37.7461 23.1286 37.2505 22.8561 36.7176 22.6872Z" fill="#C2E6C9"/>
<path d="M84.3981 49.7486C84.2449 49.3536 84.0156 48.9936 83.7236 48.6891C83.4315 48.3846 83.0823 48.1416 82.6958 47.974C82.3094 47.8064 81.8934 47.7174 81.4715 47.7122C81.0496 47.707 80.6301 47.7856 80.237 47.9436L79.4213 48.2712L79.1031 47.4518C78.7934 46.6542 78.1811 46.016 77.4007 45.6775C76.6204 45.339 75.7359 45.3279 74.942 45.6468C74.1481 45.9657 73.5097 46.5883 73.1672 47.3778C72.8248 48.1672 72.8064 49.0588 73.116 49.8563L73.4342 50.6758L75.7693 56.6903L81.7564 54.2857L82.5721 53.9581C82.9653 53.8003 83.3245 53.5662 83.629 53.2692C83.9336 52.9723 84.1776 52.6182 84.3472 52.2273C84.5168 51.8364 84.6085 51.4163 84.6173 50.9909C84.626 50.5656 84.5515 50.1435 84.3981 49.7486Z" stroke="#FFCBD0" stroke-width="2" stroke-linecap="round" stroke-linejoin="round"/>
<path d="M51.4679 31.0372C51.0773 28.0755 52.8627 21.1104 63.1298 16.9437" stroke="#FFD9B2" stroke-width="2" stroke-linecap="round"/>
<path d="M18.8639 55.3418C21.5256 58.734 28.1796 64.4526 33.5018 60.1889" stroke="#FFD9B2" stroke-width="2" stroke-linecap="round"/>
<path d="M27.8713 85.3016L28.0775 85.7945C28.42 86.6133 29.58 86.6133 29.9225 85.7945L30.1287 85.3016C30.9074 83.44 32.3609 81.9415 34.1978 81.1063L34.9758 80.7525C35.7608 80.3956 35.7562 79.279 34.9683 78.9285L34.1648 78.5711C32.3472 77.7626 30.896 76.306 30.0943 74.4854L29.9152 74.0785C29.5647 73.2825 28.4353 73.2825 28.0848 74.0785L27.9057 74.4854C27.104 76.306 25.6528 77.7626 23.8352 78.5711L23.0317 78.9285C22.2438 79.279 22.2392 80.3956 23.0242 80.7525L23.8022 81.1063C25.6391 81.9415 27.0926 83.44 27.8713 85.3016Z" fill="#FCC0D0"/>
<circle cx="19" cy="20" r="3" stroke="#BADEFD" stroke-width="2"/>
<circle cx="15" cy="76" r="2" stroke="#FFD9B2" stroke-width="2"/>
<circle cx="65.448" cy="72.4479" r="13.8511" transform="rotate(17.9648 65.448 72.4479)" fill="#FFE991"/>
<circle cx="66.1986" cy="74.8782" r="11.1279" transform="rotate(17.9648 66.1986 74.8782)" fill="#FFF4BA"/>
<path d="M62.7331 80.5374C66.4418 81.7399 70.2877 80.3419 71.8223 77.3938C72.0773 76.9039 71.7823 76.3342 71.2569 76.1638L64.8272 74.079L58.3974 71.9942C57.8721 71.8239 57.2989 72.1121 57.2179 72.6585C56.7306 75.9461 59.0244 79.3349 62.7331 80.5374Z" fill="#FFCC40"/>
<circle cx="1.93983" cy="1.93983" r="1.93983" transform="matrix(-0.951246 -0.308433 -0.308433 0.951246 63.8872 67.1965)" fill="#C78F1E"/>
<circle cx="1.93983" cy="1.93983" r="1.93983" transform="matrix(-0.951246 -0.308433 -0.308433 0.951246 73.1138 70.1882)" fill="#C78F1E"/>
<path d="M75.3105 64.6966C75.1112 66.3396 73.6178 67.5099 71.9748 67.3106C70.3318 67.1113 69.1615 65.6178 69.3608 63.9749C69.5601 62.3319 71.0536 61.1616 72.6965 61.3609C74.8826 62.0034 75.5098 63.0536 75.3105 64.6966Z" fill="#FFCC40"/>
<path fill-rule="evenodd" clip-rule="evenodd" d="M75.7394 68.3828C76.218 67.8744 76.6153 67.2733 76.9014 66.5917C77.1238 66.0619 77.2644 65.5183 77.329 64.9749C79.3849 68.1637 80.1455 72.1725 79.1029 76.1306C77.1335 83.6076 69.4756 88.0723 61.9987 86.1029C54.5217 84.1335 50.057 76.4756 52.0264 68.9987C53.9959 61.5217 61.6537 57.057 69.1306 59.0264C71.1706 59.5638 72.9863 60.5245 74.5083 61.7895C75.3799 62.8948 75.6406 64.4278 75.0573 65.8176C74.9614 66.046 74.8468 66.2608 74.7161 66.461C73.2771 64.3019 71.073 62.6404 68.3665 61.9275C62.4917 60.3801 56.4749 63.8881 54.9275 69.7628C53.3801 75.6376 56.8881 81.6544 62.7628 83.2018C68.6376 84.7493 74.6544 81.2413 76.2018 75.3665C76.8367 72.9564 76.6206 70.5223 75.7394 68.3828Z" fill="#FFCC40"/>
</svg>
