<svg width="53" height="52" viewBox="0 0 53 52" fill="none" xmlns="http://www.w3.org/2000/svg">
<g filter="url(#filter0_i_1587_1880)">
<path d="M0.5 26C0.5 22.2844 0.5 20.4265 0.723928 18.8691C2.11336 9.20538 9.70538 1.61336 19.3691 0.223928C20.9265 0 22.7844 0 26.5 0C30.2156 0 32.0735 0 33.6309 0.223928C43.2946 1.61336 50.8866 9.20538 52.2761 18.8691C52.5 20.4265 52.5 22.2844 52.5 26C52.5 29.7156 52.5 31.5735 52.2761 33.1309C50.8866 42.7946 43.2946 50.3866 33.6309 51.7761C32.0735 52 30.2156 52 26.5 52C22.7844 52 20.9265 52 19.3691 51.7761C9.70538 50.3866 2.11336 42.7946 0.723928 33.1309C0.5 31.5735 0.5 29.7156 0.5 26Z" fill="#E3F2FE"/>
<path d="M34.1917 16.705H29.754C29.3081 15.4735 28.1402 14.5817 26.7601 14.5817C25.3799 14.5817 24.2121 15.4735 23.7662 16.705H19.3284C18.1606 16.705 17.2051 17.6605 17.2051 18.8283V33.6917C17.2051 34.8595 18.1606 35.815 19.3284 35.815H34.1917C35.3596 35.815 36.3151 34.8595 36.3151 33.6917V18.8283C36.3151 17.6605 35.3596 16.705 34.1917 16.705ZM26.7601 16.4396C26.9936 16.4396 27.1954 16.5457 27.344 16.705C27.4714 16.843 27.5563 17.0341 27.5563 17.2358C27.5563 17.6711 27.1954 18.0321 26.7601 18.0321C26.3248 18.0321 25.9638 17.6711 25.9638 17.2358C25.9638 17.0341 26.0488 16.843 26.1762 16.705C26.3248 16.5457 26.5265 16.4396 26.7601 16.4396ZM34.1917 33.6917H19.3284V18.8283H34.1917V33.6917ZM26.7601 19.89C25.0083 19.89 23.5751 21.3232 23.5751 23.075C23.5751 24.8267 25.0083 26.26 26.7601 26.26C28.5118 26.26 29.9451 24.8267 29.9451 23.075C29.9451 21.3232 28.5118 19.89 26.7601 19.89ZM26.7601 24.1367C26.1762 24.1367 25.6984 23.6589 25.6984 23.075C25.6984 22.4911 26.1762 22.0133 26.7601 22.0133C27.344 22.0133 27.8217 22.4911 27.8217 23.075C27.8217 23.6589 27.344 24.1367 26.7601 24.1367ZM20.3901 31.0056V32.63H33.1301V31.0056C33.1301 28.3515 28.9153 27.2049 26.7601 27.2049C24.6049 27.2049 20.3901 28.3409 20.3901 31.0056ZM22.8425 30.5067C23.5751 29.9121 25.3693 29.3176 26.7601 29.3176C28.1509 29.3176 29.9557 29.9121 30.6776 30.5067H22.8425Z" fill="#0376D9"/>
<g opacity="0.08" filter="url(#filter1_f_1587_1880)">
<ellipse cx="27.1668" cy="37.8333" rx="9.33333" ry="5.33333" fill="#0265C7"/>
</g>
</g>
<defs>
<filter id="filter0_i_1587_1880" x="0.5" y="0" width="52" height="56" filterUnits="userSpaceOnUse" color-interpolation-filters="sRGB">
<feFlood flood-opacity="0" result="BackgroundImageFix"/>
<feBlend mode="normal" in="SourceGraphic" in2="BackgroundImageFix" result="shape"/>
<feColorMatrix in="SourceAlpha" type="matrix" values="0 0 0 0 0 0 0 0 0 0 0 0 0 0 0 0 0 0 127 0" result="hardAlpha"/>
<feMorphology radius="2" operator="erode" in="SourceAlpha" result="effect1_innerShadow_1587_1880"/>
<feOffset dy="4"/>
<feGaussianBlur stdDeviation="5.5"/>
<feComposite in2="hardAlpha" operator="arithmetic" k2="-1" k3="1"/>
<feColorMatrix type="matrix" values="0 0 0 0 0.729412 0 0 0 0 0.870588 0 0 0 0 0.992157 0 0 0 0.5 0"/>
<feBlend mode="normal" in2="shape" result="effect1_innerShadow_1587_1880"/>
</filter>
<filter id="filter1_f_1587_1880" x="12.9104" y="27.5769" width="28.5129" height="20.5128" filterUnits="userSpaceOnUse" color-interpolation-filters="sRGB">
<feFlood flood-opacity="0" result="BackgroundImageFix"/>
<feBlend mode="normal" in="SourceGraphic" in2="BackgroundImageFix" result="shape"/>
<feGaussianBlur stdDeviation="2.46154" result="effect1_foregroundBlur_1587_1880"/>
</filter>
</defs>
</svg>
