<svg width="96" height="96" viewBox="0 0 96 96" fill="none" xmlns="http://www.w3.org/2000/svg">
<rect width="96" height="96" fill="white"/>
<ellipse cx="49.5" cy="82.5" rx="18.5" ry="5.5" fill="#FFE991"/>
<rect x="11" y="71.2146" width="10.246" height="10.246" rx="2" transform="rotate(-12.483 11 71.2146)" fill="#8ECBFD"/>
<rect x="78.0127" y="13.8342" width="5.46943" height="5.46943" rx="1" transform="rotate(8.85659 78.0127 13.8342)" fill="#FFBF80"/>
<rect x="75.1802" y="67.2686" width="8.55224" height="8.55224" rx="1" transform="rotate(12.1263 75.1802 67.2686)" stroke="#F5C1E5" stroke-width="2"/>
<mask id="path-5-inside-1_433_9213" fill="white">
<rect x="14.1895" y="12.8074" width="7.65141" height="7.65141" rx="1" transform="rotate(13.3673 14.1895 12.8074)"/>
</mask>
<rect x="14.1895" y="12.8074" width="7.65141" height="7.65141" rx="1" transform="rotate(13.3673 14.1895 12.8074)" stroke="#C2E6C9" stroke-width="4" mask="url(#path-5-inside-1_433_9213)"/>
<path d="M42.1224 50.6338C39.9295 50.6338 37.8264 51.5049 36.2758 53.0555C34.7251 54.6062 33.854 56.7093 33.854 58.9022V62.218C33.854 63.122 34.5868 63.8548 35.4908 63.8548H62.0171C62.9211 63.8548 63.654 63.122 63.654 62.218V58.9022C63.654 56.7093 62.7828 54.6062 61.2322 53.0555C59.6816 51.5049 57.5785 50.6338 55.3856 50.6338H42.1224Z" fill="#FFCC40" stroke="#D9A52B" stroke-width="3" stroke-linecap="round" stroke-linejoin="round"/>
<path d="M48.7538 26.1938C43.0568 26.1938 38.4385 30.8122 38.4385 36.5092C38.4385 42.2062 43.0568 46.8246 48.7538 46.8246C54.4509 46.8246 59.0692 42.2062 59.0692 36.5092C59.0692 30.8122 54.4509 26.1938 48.7538 26.1938Z" fill="#FFCC40" stroke="#D9A52B" stroke-width="3" stroke-linecap="round" stroke-linejoin="round"/>
<path opacity="0.4" d="M43.1411 36.0285V36.0285C43.1411 33.3859 45.2834 31.2437 47.926 31.2437V31.2437" stroke="#FFFBE3" stroke-width="3" stroke-linecap="round"/>
<path opacity="0.4" d="M37.9077 62.9423V61.3473C37.9077 57.8239 40.7641 54.9675 44.2875 54.9675V54.9675" stroke="#FFFBE3" stroke-width="3" stroke-linecap="round"/>
<path fill-rule="evenodd" clip-rule="evenodd" d="M47.3168 81.4509C48.6145 82.4185 50.3415 82.4185 51.6392 81.4509C58.4869 76.3451 79.2543 59.2615 79.2543 39.8636C79.2543 31.9433 76.1171 24.3474 70.533 18.7469C64.9489 13.1463 57.3751 10 49.478 10C41.5808 10 34.0071 13.1463 28.4229 18.7469C22.8388 24.3474 19.7017 31.9433 19.7017 39.8636C19.7017 59.2615 40.469 76.3451 47.3168 81.4509ZM67.7473 39.2C67.7473 49.6824 59.2497 58.18 48.7673 58.18C38.285 58.18 29.7873 49.6824 29.7873 39.2C29.7873 28.7177 38.285 20.22 48.7673 20.22C59.2497 20.22 67.7473 28.7177 67.7473 39.2Z" fill="#BADEFD" stroke="#0488ED" stroke-width="3" stroke-linecap="round" stroke-linejoin="round"/>
<path fill-rule="evenodd" clip-rule="evenodd" d="M44.5275 78.0245C45.8418 79.0809 47.6488 79.1021 48.9883 78.0778C55.7106 72.9369 75.1853 56.5088 75.1853 38.7246C75.1853 31.3953 72.2581 24.3663 67.0477 19.1837C61.8373 14.0011 54.7704 11.0896 47.4017 11.0896C40.0331 11.0896 32.9662 14.0011 27.7558 19.1837C22.5454 24.3663 19.6182 31.3953 19.6182 38.7246C19.6182 56.4478 38.0578 72.8241 44.5275 78.0245ZM67.0477 38.1105C67.0477 50.3135 56.5195 57.3956 46.7387 57.3956C36.9578 57.3956 29.0289 47.8106 29.0289 38.1105C29.0289 28.4104 36.9578 20.547 46.7387 20.547C56.5195 20.547 67.0477 28.4104 67.0477 38.1105Z" fill="#8ECBFD"/>
<path fill-rule="evenodd" clip-rule="evenodd" d="M47.3168 81.4509C48.6145 82.4185 50.3415 82.4185 51.6392 81.4509C58.4869 76.3451 79.2543 59.2615 79.2543 39.8636C79.2543 31.9433 76.1172 24.3474 70.533 18.7469C64.9489 13.1463 57.3751 10 49.478 10C41.5808 10 34.0071 13.1463 28.4229 18.7469C22.8388 24.3474 19.7017 31.9433 19.7017 39.8636C19.7017 59.2615 40.469 76.3451 47.3168 81.4509ZM67.7473 39.2C67.7473 49.6824 59.2497 58.18 48.7673 58.18C38.285 58.18 29.7873 49.6824 29.7873 39.2C29.7873 28.7177 38.285 20.22 48.7673 20.22C59.2497 20.22 67.7473 28.7177 67.7473 39.2Z" stroke="#0488ED" stroke-width="3" stroke-linecap="round" stroke-linejoin="round"/>
<path d="M47.6968 15.7827C40.2772 15.7827 33.6613 19.3624 29.3584 24.9519" stroke="#BADEFD" stroke-width="3" stroke-linecap="round" stroke-linejoin="round"/>
<path d="M38.5958 62.229C45.3129 65.3805 52.8228 64.9499 59.0924 61.7173" stroke="#BADEFD" stroke-width="3" stroke-linecap="round" stroke-linejoin="round"/>
</svg>
