<svg width="53" height="52" viewBox="0 0 53 52" fill="none" xmlns="http://www.w3.org/2000/svg">
<g filter="url(#filter0_i_1587_5901)">
<path d="M0.5 26C0.5 22.2844 0.5 20.4265 0.723928 18.8691C2.11336 9.20538 9.70538 1.61336 19.3691 0.223928C20.9265 0 22.7844 0 26.5 0C30.2156 0 32.0735 0 33.6309 0.223928C43.2946 1.61336 50.8866 9.20538 52.2761 18.8691C52.5 20.4265 52.5 22.2844 52.5 26C52.5 29.7156 52.5 31.5735 52.2761 33.1309C50.8866 42.7946 43.2946 50.3866 33.6309 51.7761C32.0735 52 30.2156 52 26.5 52C22.7844 52 20.9265 52 19.3691 51.7761C9.70538 50.3866 2.11336 42.7946 0.723928 33.1309C0.5 31.5735 0.5 29.7156 0.5 26Z" fill="#FFF4BA"/>
<g opacity="0.13" filter="url(#filter1_f_1587_5901)">
<ellipse cx="27.1666" cy="36.5" rx="9.33333" ry="5.33333" fill="#FFA64D"/>
</g>
<path d="M25.5727 24.8628V37.8949H27.5871V25.2472C27.5871 25.2472 36.965 23.2973 36.965 15.0149C24.141 15.7796 25.5727 24.8628 25.5727 24.8628Z" fill="#FF8000"/>
<path d="M24.6757 20.8428C24.7116 20.9414 24.7455 21.0346 24.7815 21.1211C24.7815 21.2328 24.7872 21.3653 24.7935 21.5115C24.8461 22.7316 24.9401 24.9165 22.1153 24.1511C18.9517 23.2938 16.4465 19.7272 16.23 17.1599C23.5841 17.8398 24.2622 19.7051 24.6757 20.8428Z" fill="#FF8000"/>
</g>
<defs>
<filter id="filter0_i_1587_5901" x="0.5" y="0" width="52" height="56" filterUnits="userSpaceOnUse" color-interpolation-filters="sRGB">
<feFlood flood-opacity="0" result="BackgroundImageFix"/>
<feBlend mode="normal" in="SourceGraphic" in2="BackgroundImageFix" result="shape"/>
<feColorMatrix in="SourceAlpha" type="matrix" values="0 0 0 0 0 0 0 0 0 0 0 0 0 0 0 0 0 0 127 0" result="hardAlpha"/>
<feMorphology radius="2" operator="erode" in="SourceAlpha" result="effect1_innerShadow_1587_5901"/>
<feOffset dy="4"/>
<feGaussianBlur stdDeviation="5.5"/>
<feComposite in2="hardAlpha" operator="arithmetic" k2="-1" k3="1"/>
<feColorMatrix type="matrix" values="0 0 0 0 1 0 0 0 0 0.913726 0 0 0 0 0.568627 0 0 0 0.6 0"/>
<feBlend mode="normal" in2="shape" result="effect1_innerShadow_1587_5901"/>
</filter>
<filter id="filter1_f_1587_5901" x="12.9102" y="26.2435" width="28.5129" height="20.5128" filterUnits="userSpaceOnUse" color-interpolation-filters="sRGB">
<feFlood flood-opacity="0" result="BackgroundImageFix"/>
<feBlend mode="normal" in="SourceGraphic" in2="BackgroundImageFix" result="shape"/>
<feGaussianBlur stdDeviation="2.46154" result="effect1_foregroundBlur_1587_5901"/>
</filter>
</defs>
</svg>
